<svg width="50" height="41" viewBox="0 0 50 41" fill="none" xmlns="http://www.w3.org/2000/svg">
<mask id="mask0_1_21" style="mask-type:alpha" maskUnits="userSpaceOnUse" x="0" y="0" width="50" height="41">
<rect width="50" height="40.2947" fill="#D9D9D9"/>
</mask>
<g mask="url(#mask0_1_21)">
<path d="M10.4167 36.9342C9.27083 36.9342 8.28993 36.6054 7.47396 35.9478C6.65799 35.2903 6.25 34.4998 6.25 33.5763V10.0711C6.25 9.1477 6.65799 8.3572 7.47396 7.69961C8.28993 7.04203 9.27083 6.71323 10.4167 6.71323H12.5V3.35535H16.6667V6.71323H33.3333V3.35535H37.5V6.71323H39.5833C40.7292 6.71323 41.7101 7.04203 42.526 7.69961C43.342 8.3572 43.75 9.1477 43.75 10.0711V33.5763C43.75 34.4998 43.342 35.2903 42.526 35.9478C41.7101 36.6054 40.7292 36.9342 39.5833 36.9342H10.4167ZM10.4167 33.5763H39.5833V16.7869H10.4167V33.5763ZM10.4167 13.429H39.5833V10.0711H10.4167V13.429ZM25 23.5027C24.4097 23.5027 23.9149 23.3418 23.5156 23.02C23.1163 22.6982 22.9167 22.2994 22.9167 21.8237C22.9167 21.348 23.1163 20.9493 23.5156 20.6275C23.9149 20.3057 24.4097 20.1448 25 20.1448C25.5903 20.1448 26.0851 20.3057 26.4844 20.6275C26.8837 20.9493 27.0833 21.348 27.0833 21.8237C27.0833 22.2994 26.8837 22.6982 26.4844 23.02C26.0851 23.3418 25.5903 23.5027 25 23.5027ZM16.6667 23.5027C16.0764 23.5027 15.5816 23.3418 15.1823 23.02C14.783 22.6982 14.5833 22.2994 14.5833 21.8237C14.5833 21.348 14.783 20.9493 15.1823 20.6275C15.5816 20.3057 16.0764 20.1448 16.6667 20.1448C17.2569 20.1448 17.7517 20.3057 18.151 20.6275C18.5503 20.9493 18.75 21.348 18.75 21.8237C18.75 22.2994 18.5503 22.6982 18.151 23.02C17.7517 23.3418 17.2569 23.5027 16.6667 23.5027ZM33.3333 23.5027C32.7431 23.5027 32.2483 23.3418 31.849 23.02C31.4497 22.6982 31.25 22.2994 31.25 21.8237C31.25 21.348 31.4497 20.9493 31.849 20.6275C32.2483 20.3057 32.7431 20.1448 33.3333 20.1448C33.9236 20.1448 34.4184 20.3057 34.8177 20.6275C35.217 20.9493 35.4167 21.348 35.4167 21.8237C35.4167 22.2994 35.217 22.6982 34.8177 23.02C34.4184 23.3418 33.9236 23.5027 33.3333 23.5027ZM25 30.2184C24.4097 30.2184 23.9149 30.0576 23.5156 29.7358C23.1163 29.414 22.9167 29.0152 22.9167 28.5395C22.9167 28.0638 23.1163 27.6651 23.5156 27.3433C23.9149 27.0215 24.4097 26.8606 25 26.8606C25.5903 26.8606 26.0851 27.0215 26.4844 27.3433C26.8837 27.6651 27.0833 28.0638 27.0833 28.5395C27.0833 29.0152 26.8837 29.414 26.4844 29.7358C26.0851 30.0576 25.5903 30.2184 25 30.2184ZM16.6667 30.2184C16.0764 30.2184 15.5816 30.0576 15.1823 29.7358C14.783 29.414 14.5833 29.0152 14.5833 28.5395C14.5833 28.0638 14.783 27.6651 15.1823 27.3433C15.5816 27.0215 16.0764 26.8606 16.6667 26.8606C17.2569 26.8606 17.7517 27.0215 18.151 27.3433C18.5503 27.6651 18.75 28.0638 18.75 28.5395C18.75 29.0152 18.5503 29.414 18.151 29.7358C17.7517 30.0576 17.2569 30.2184 16.6667 30.2184ZM33.3333 30.2184C32.7431 30.2184 32.2483 30.0576 31.849 29.7358C31.4497 29.414 31.25 29.0152 31.25 28.5395C31.25 28.0638 31.4497 27.6651 31.849 27.3433C32.2483 27.0215 32.7431 26.8606 33.3333 26.8606C33.9236 26.8606 34.4184 27.0215 34.8177 27.3433C35.217 27.6651 35.4167 28.0638 35.4167 28.5395C35.4167 29.0152 35.217 29.414 34.8177 29.7358C34.4184 30.0576 33.9236 30.2184 33.3333 30.2184Z" fill="#D9D9D9"/>
</g>
</svg>
