<svg width="50" height="39" viewBox="0 0 50 39" fill="none" xmlns="http://www.w3.org/2000/svg">
<mask id="mask0_1_25" style="mask-type:alpha" maskUnits="userSpaceOnUse" x="0" y="0" width="50" height="39">
<rect width="49.3905" height="39" fill="#D9D9D9"/>
</mask>
<g mask="url(#mask0_1_25)">
<path d="M8.2324 23.1156H10.5476L11.7309 20.4344H17.0815L18.3163 23.1156H20.58L15.5895 12.6344H13.2229L8.2324 23.1156ZM12.3997 18.9313L14.3548 14.5844H14.4577L16.4127 18.9313H12.3997ZM28.8118 16.0875V13.325C29.9436 12.9458 31.1012 12.6615 32.2845 12.4719C33.4679 12.2823 34.7112 12.1875 36.0146 12.1875C36.9063 12.1875 37.7809 12.2417 38.6384 12.35C39.4959 12.4583 40.3362 12.5938 41.1594 12.7563V15.3563C40.3362 15.1125 39.5045 14.9297 38.6641 14.8078C37.8238 14.6859 36.9406 14.625 36.0146 14.625C34.7112 14.625 33.4593 14.7536 32.2588 15.0109C31.0584 15.2682 29.9093 15.6271 28.8118 16.0875ZM28.8118 25.025V22.2625C29.9436 21.8833 31.1012 21.599 32.2845 21.4094C33.4679 21.2198 34.7112 21.125 36.0146 21.125C36.9063 21.125 37.7809 21.1792 38.6384 21.2875C39.4959 21.3958 40.3362 21.5313 41.1594 21.6938V24.2937C40.3362 24.05 39.5045 23.8672 38.6641 23.7453C37.8238 23.6234 36.9406 23.5625 36.0146 23.5625C34.7112 23.5625 33.4593 23.6844 32.2588 23.9281C31.0584 24.1719 29.9093 24.5375 28.8118 25.025ZM28.8118 20.5563V17.7938C29.9436 17.4146 31.1012 17.1302 32.2845 16.9406C33.4679 16.751 34.7112 16.6562 36.0146 16.6562C36.9063 16.6562 37.7809 16.7104 38.6384 16.8187C39.4959 16.9271 40.3362 17.0625 41.1594 17.225V19.825C40.3362 19.5812 39.5045 19.3984 38.6641 19.2766C37.8238 19.1547 36.9406 19.0938 36.0146 19.0938C34.7112 19.0938 33.4593 19.2224 32.2588 19.4797C31.0584 19.737 29.9093 20.0958 28.8118 20.5563ZM13.3772 26C14.9893 26 16.5585 26.1422 18.0848 26.4266C19.6111 26.7109 21.1288 27.1375 22.638 27.7063V11.7C21.2317 11.05 19.7397 10.5625 18.162 10.2375C16.5842 9.9125 14.9893 9.75 13.3772 9.75C12.1425 9.75 10.9163 9.84479 9.69868 10.0344C8.48107 10.224 7.30633 10.5083 6.17447 10.8875V26.975C7.37493 26.65 8.56682 26.4062 9.75013 26.2438C10.9334 26.0813 12.1425 26 13.3772 26ZM26.7538 27.7063C28.263 27.1375 29.7807 26.7109 31.307 26.4266C32.8333 26.1422 34.4025 26 36.0146 26C37.2493 26 38.4584 26.0813 39.6417 26.2438C40.825 26.4062 42.0169 26.65 43.2173 26.975V10.8875C42.0855 10.5083 40.9107 10.224 39.6931 10.0344C38.4755 9.84479 37.2493 9.75 36.0146 9.75C34.4025 9.75 32.8076 9.9125 31.2298 10.2375C29.6521 10.5625 28.1601 11.05 26.7538 11.7V27.7063ZM24.6959 32.5C23.0496 31.4708 21.266 30.6719 19.3453 30.1031C17.4245 29.5344 15.4352 29.25 13.3772 29.25C11.9367 29.25 10.5219 29.399 9.13275 29.6969C7.74364 29.9948 6.41456 30.4146 5.1455 30.9563C4.42522 31.2542 3.73067 31.2406 3.06184 30.9156C2.39301 30.5906 2.05859 30.1167 2.05859 29.4938V9.9125C2.05859 9.61458 2.15292 9.33021 2.34156 9.05938C2.5302 8.78854 2.81317 8.58542 3.19046 8.45C4.76821 7.8 6.41456 7.3125 8.12951 6.9875C9.84446 6.6625 11.5937 6.5 13.3772 6.5C15.3666 6.5 17.3131 6.70312 19.2166 7.10938C21.1202 7.51562 22.9467 8.125 24.6959 8.9375C26.4451 8.125 28.2716 7.51562 30.1752 7.10938C32.0787 6.70312 34.0252 6.5 36.0146 6.5C37.7981 6.5 39.5473 6.6625 41.2623 6.9875C42.9772 7.3125 44.6236 7.8 46.2013 8.45C46.5786 8.58542 46.8616 8.78854 47.0502 9.05938C47.2389 9.33021 47.3332 9.61458 47.3332 9.9125V29.4938C47.3332 30.1167 46.9988 30.5906 46.33 30.9156C45.6611 31.2406 44.9666 31.2542 44.2463 30.9563C42.9772 30.4146 41.6482 29.9948 40.259 29.6969C38.8699 29.399 37.4551 29.25 36.0146 29.25C33.9566 29.25 31.9673 29.5344 30.0465 30.1031C28.1258 30.6719 26.3422 31.4708 24.6959 32.5Z" fill="#D9D9D9"/>
</g>
</svg>
