<svg width="38" height="35" viewBox="0 0 38 35" fill="none" xmlns="http://www.w3.org/2000/svg">
<mask id="mask0_1053_13" style="mask-type:alpha" maskUnits="userSpaceOnUse" x="0" y="0" width="38" height="35">
<rect width="38" height="35" fill="#D9D9D9"/>
</mask>
<g mask="url(#mask0_1053_13)">
<path d="M22.1667 27.7083C22.6153 27.7083 22.9913 27.5685 23.2948 27.289C23.5983 27.0095 23.75 26.6632 23.75 26.25C23.75 25.8368 23.5983 25.4904 23.2948 25.2109C22.9913 24.9314 22.6153 24.7916 22.1667 24.7916C21.7181 24.7916 21.342 24.9314 21.0385 25.2109C20.7351 25.4904 20.5833 25.8368 20.5833 26.25C20.5833 26.6632 20.7351 27.0095 21.0385 27.289C21.342 27.5685 21.7181 27.7083 22.1667 27.7083ZM26.9167 27.7083C27.3653 27.7083 27.7413 27.5685 28.0448 27.289C28.3483 27.0095 28.5 26.6632 28.5 26.25C28.5 25.8368 28.3483 25.4904 28.0448 25.2109C27.7413 24.9314 27.3653 24.7916 26.9167 24.7916C26.4681 24.7916 26.092 24.9314 25.7885 25.2109C25.4851 25.4904 25.3333 25.8368 25.3333 26.25C25.3333 26.6632 25.4851 27.0095 25.7885 27.289C26.092 27.5685 26.4681 27.7083 26.9167 27.7083ZM4.75 18.9583V5.83329C4.75 5.03121 5.06007 4.34458 5.68021 3.7734C6.30035 3.20222 7.04583 2.91663 7.91667 2.91663H30.0833C30.9542 2.91663 31.6997 3.20222 32.3198 3.7734C32.9399 4.34458 33.25 5.03121 33.25 5.83329V18.9583H30.0833V5.83329H7.91667V18.9583H4.75ZM7.91667 21.875V29.1666H30.0833V21.875H7.91667ZM7.91667 32.0833C7.04583 32.0833 6.30035 31.7977 5.68021 31.2265C5.06007 30.6553 4.75 29.9687 4.75 29.1666V18.9583H33.25V29.1666C33.25 29.9687 32.9399 30.6553 32.3198 31.2265C31.6997 31.7977 30.9542 32.0833 30.0833 32.0833H7.91667Z" fill="#D9D9D9"/>
</g>
</svg>
