<svg width="49" height="41" viewBox="0 0 49 41" fill="none" xmlns="http://www.w3.org/2000/svg">
<g filter="url(#filter0_d_1_6)">
<mask id="mask0_1_6" style="mask-type:alpha" maskUnits="userSpaceOnUse" x="1" y="0" width="48" height="37">
<rect x="1" width="47.3229" height="37" fill="#D9D9D9"/>
</mask>
<g mask="url(#mask0_1_6)">
<path d="M14.8023 21.5833C15.361 21.5833 15.8293 21.4356 16.2072 21.1401C16.5851 20.8446 16.7741 20.4785 16.7741 20.0417C16.7741 19.6049 16.5851 19.2387 16.2072 18.9432C15.8293 18.6477 15.361 18.5 14.8023 18.5C14.2436 18.5 13.7753 18.6477 13.3974 18.9432C13.0195 19.2387 12.8305 19.6049 12.8305 20.0417C12.8305 20.4785 13.0195 20.8446 13.3974 21.1401C13.7753 21.4356 14.2436 21.5833 14.8023 21.5833ZM14.8023 15.4167C15.361 15.4167 15.8293 15.2689 16.2072 14.9734C16.5851 14.678 16.7741 14.3118 16.7741 13.875C16.7741 13.4382 16.5851 13.072 16.2072 12.7766C15.8293 12.4811 15.361 12.3333 14.8023 12.3333C14.2436 12.3333 13.7753 12.4811 13.3974 12.7766C13.0195 13.072 12.8305 13.4382 12.8305 13.875C12.8305 14.3118 13.0195 14.678 13.3974 14.9734C13.7753 15.2689 14.2436 15.4167 14.8023 15.4167ZM18.7459 21.5833H36.492V18.5H18.7459V21.5833ZM18.7459 15.4167H36.492V12.3333H18.7459V15.4167ZM16.7741 32.375V29.2917H8.88693C7.80245 29.2917 6.87407 28.9898 6.10178 28.3859C5.3295 27.7821 4.94336 27.0562 4.94336 26.2083V7.70833C4.94336 6.86042 5.3295 6.13455 6.10178 5.53073C6.87407 4.92691 7.80245 4.625 8.88693 4.625H40.4355C41.52 4.625 42.4484 4.92691 43.2207 5.53073C43.993 6.13455 44.3791 6.86042 44.3791 7.70833V26.2083C44.3791 27.0562 43.993 27.7821 43.2207 28.3859C42.4484 28.9898 41.52 29.2917 40.4355 29.2917H32.5484V32.375H16.7741ZM8.88693 26.2083H40.4355V7.70833H8.88693V26.2083Z" fill="#D9D9D9"/>
</g>
</g>
<defs>
<filter id="filter0_d_1_6" x="0.943359" y="4.625" width="47.4355" height="35.75" filterUnits="userSpaceOnUse" color-interpolation-filters="sRGB">
<feFlood flood-opacity="0" result="BackgroundImageFix"/>
<feColorMatrix in="SourceAlpha" type="matrix" values="0 0 0 0 0 0 0 0 0 0 0 0 0 0 0 0 0 0 127 0" result="hardAlpha"/>
<feOffset dy="4"/>
<feGaussianBlur stdDeviation="2"/>
<feComposite in2="hardAlpha" operator="out"/>
<feColorMatrix type="matrix" values="0 0 0 0 0 0 0 0 0 0 0 0 0 0 0 0 0 0 0.25 0"/>
<feBlend mode="normal" in2="BackgroundImageFix" result="effect1_dropShadow_1_6"/>
<feBlend mode="normal" in="SourceGraphic" in2="effect1_dropShadow_1_6" result="shape"/>
</filter>
</defs>
</svg>
