<svg width="51" height="35" viewBox="0 0 51 35" fill="none" xmlns="http://www.w3.org/2000/svg">
<path d="M0.476562 35V28.875C0.476562 27.6354 0.808002 26.4961 1.47088 25.457C2.13376 24.418 3.01444 23.625 4.11293 23.0781C6.46141 21.9479 8.84777 21.1003 11.272 20.5352C13.6963 19.9701 16.1584 19.6875 18.6584 19.6875C21.1584 19.6875 23.6205 19.9701 26.0447 20.5352C28.469 21.1003 30.8554 21.9479 33.2038 23.0781C34.3023 23.625 35.183 24.418 35.8459 25.457C36.5088 26.4961 36.8402 27.6354 36.8402 28.875V35H0.476562ZM41.3857 35V28.4375C41.3857 26.8333 40.9216 25.293 39.9936 23.8164C39.0656 22.3398 37.7493 21.0729 36.0447 20.0156C37.9766 20.2344 39.7947 20.6081 41.4993 21.1367C43.2038 21.6654 44.7947 22.3125 46.272 23.0781C47.6357 23.8073 48.6773 24.6185 49.397 25.5117C50.1167 26.4049 50.4766 27.3802 50.4766 28.4375V35H41.3857ZM18.6584 17.5C16.1584 17.5 14.0182 16.6432 12.2379 14.9297C10.4576 13.2161 9.56747 11.1562 9.56747 8.75C9.56747 6.34375 10.4576 4.28385 12.2379 2.57031C14.0182 0.856771 16.1584 0 18.6584 0C21.1584 0 23.2985 0.856771 25.0788 2.57031C26.8591 4.28385 27.7493 6.34375 27.7493 8.75C27.7493 11.1562 26.8591 13.2161 25.0788 14.9297C23.2985 16.6432 21.1584 17.5 18.6584 17.5ZM41.3857 8.75C41.3857 11.1562 40.4955 13.2161 38.7152 14.9297C36.9349 16.6432 34.7947 17.5 32.2947 17.5C31.8781 17.5 31.3478 17.4544 30.7038 17.3633C30.0599 17.2721 29.5296 17.1719 29.1129 17.0625C30.1357 15.8958 30.9216 14.6016 31.4709 13.1797C32.0201 11.7578 32.2947 10.2812 32.2947 8.75C32.2947 7.21875 32.0201 5.74219 31.4709 4.32031C30.9216 2.89844 30.1357 1.60417 29.1129 0.4375C29.6432 0.255208 30.1735 0.136719 30.7038 0.0820312C31.2341 0.0273438 31.7644 0 32.2947 0C34.7947 0 36.9349 0.856771 38.7152 2.57031C40.4955 4.28385 41.3857 6.34375 41.3857 8.75ZM5.02202 30.625H32.2947V28.875C32.2947 28.474 32.1906 28.1094 31.9822 27.7812C31.7739 27.4531 31.4993 27.1979 31.1584 27.0156C29.1129 26.0312 27.0485 25.293 24.9652 24.8008C22.8819 24.3086 20.7796 24.0625 18.6584 24.0625C16.5372 24.0625 14.4349 24.3086 12.3516 24.8008C10.2682 25.293 8.20384 26.0312 6.15838 27.0156C5.81747 27.1979 5.54285 27.4531 5.33452 27.7812C5.12618 28.1094 5.02202 28.474 5.02202 28.875V30.625ZM18.6584 13.125C19.9084 13.125 20.9785 12.6966 21.8686 11.8398C22.7588 10.9831 23.2038 9.95312 23.2038 8.75C23.2038 7.54688 22.7588 6.51693 21.8686 5.66016C20.9785 4.80339 19.9084 4.375 18.6584 4.375C17.4084 4.375 16.3383 4.80339 15.4482 5.66016C14.558 6.51693 14.1129 7.54688 14.1129 8.75C14.1129 9.95312 14.558 10.9831 15.4482 11.8398C16.3383 12.6966 17.4084 13.125 18.6584 13.125Z" fill="#D9D9D9"/>
</svg>
