<svg width="29" height="28" viewBox="0 0 29 28" fill="none" xmlns="http://www.w3.org/2000/svg">
<mask id="mask0_1_44" style="mask-type:alpha" maskUnits="userSpaceOnUse" x="0" y="0" width="29" height="29">
<rect y="0.105469" width="28.5664" height="27.902" fill="#D9D9D9"/>
</mask>
<g mask="url(#mask0_1_44)">
<path d="M4.76139 23.357C4.10674 23.357 3.54633 23.1293 3.08014 22.674C2.61395 22.2186 2.38086 21.6712 2.38086 21.0318V7.08078C2.38086 6.44136 2.61395 5.89398 3.08014 5.43863C3.54633 4.98329 4.10674 4.75562 4.76139 4.75562H23.8056C24.4603 4.75562 25.0207 4.98329 25.4869 5.43863C25.9531 5.89398 26.1862 6.44136 26.1862 7.08078V21.0318C26.1862 21.6712 25.9531 22.2186 25.4869 22.674C25.0207 23.1293 24.4603 23.357 23.8056 23.357H4.76139ZM14.2835 15.2189L4.76139 9.40595V21.0318H23.8056V9.40595L14.2835 15.2189ZM14.2835 12.8937L23.8056 7.08078H4.76139L14.2835 12.8937ZM4.76139 9.40595V7.08078V21.0318V9.40595Z" fill="black"/>
</g>
</svg>
