<svg width="44" height="30" viewBox="0 0 44 30" fill="none" xmlns="http://www.w3.org/2000/svg">
<mask id="mask0_1_41" style="mask-type:alpha" maskUnits="userSpaceOnUse" x="0" y="0" width="44" height="30">
<rect width="43.209" height="29.895" fill="#D9D9D9"/>
</mask>
<g mask="url(#mask0_1_41)">
<path d="M5.14062 23.6678V21.1766H8.74137V12.4572C8.74137 10.7341 9.49153 9.203 10.9918 7.86395C12.4922 6.5249 14.4426 5.64777 16.8431 5.23257V4.36063C16.8431 3.84162 17.1056 3.40046 17.6307 3.03715C18.1558 2.67384 18.7935 2.49219 19.5436 2.49219C20.2938 2.49219 20.9314 2.67384 21.4565 3.03715C21.9816 3.40046 22.2442 3.84162 22.2442 4.36063V5.23257C24.6447 5.64777 26.5951 6.5249 28.0954 7.86395C29.5957 9.203 30.3459 10.7341 30.3459 12.4572V21.1766H33.9466V23.6678H5.14062ZM19.5436 27.4047C18.5534 27.4047 17.7057 27.1608 17.0006 26.6729C16.2954 26.185 15.9429 25.5986 15.9429 24.9135H23.1444C23.1444 25.5986 22.7918 26.185 22.0866 26.6729C21.3815 27.1608 20.5338 27.4047 19.5436 27.4047ZM12.3421 21.1766H26.7451V12.4572C26.7451 11.087 26.04 9.91405 24.6297 8.93831C23.2194 7.96256 21.524 7.47469 19.5436 7.47469C17.5632 7.47469 15.8679 7.96256 14.4576 8.93831C13.0473 9.91405 12.3421 11.087 12.3421 12.4572V21.1766Z" fill="black"/>
</g>
</svg>
