<svg width="30" height="30" viewBox="0 0 30 30" fill="none" xmlns="http://www.w3.org/2000/svg">
<mask id="mask0_181_62" style="mask-type:alpha" maskUnits="userSpaceOnUse" x="0" y="0" width="30" height="30">
<rect width="30" height="30" fill="#D9D9D9"/>
</mask>
<g mask="url(#mask0_181_62)">
<path d="M4.8353 22.0692C4.14905 22.0692 3.56158 21.8265 3.07288 21.3412C2.58419 20.8558 2.33984 20.2723 2.33984 19.5908V4.72024C2.33984 4.03868 2.58419 3.45522 3.07288 2.96986C3.56158 2.4845 4.14905 2.24182 4.8353 2.24182H24.7989C25.4852 2.24182 26.0727 2.4845 26.5613 2.96986C27.05 3.45522 27.2944 4.03868 27.2944 4.72024V19.5908C27.2944 20.2723 27.05 20.8558 26.5613 21.3412C26.0727 21.8265 25.4852 22.0692 24.7989 22.0692H4.8353ZM14.8171 13.3947L4.8353 7.19866V19.5908H24.7989V7.19866L14.8171 13.3947ZM14.8171 10.9163L24.7989 4.72024H4.8353L14.8171 10.9163ZM4.8353 7.19866V4.72024V19.5908V7.19866Z" fill="#165B4B"/>
</g>
</svg>
