<svg width="38" height="38" viewBox="0 0 38 38" fill="none" xmlns="http://www.w3.org/2000/svg">
<mask id="mask0_53_1214" style="mask-type:alpha" maskUnits="userSpaceOnUse" x="0" y="0" width="38" height="38">
<rect width="38" height="38" fill="#D9D9D9"/>
</mask>
<g mask="url(#mask0_53_1214)">
<path d="M18.6031 18.7072C16.8679 18.7072 15.3824 18.088 14.1467 16.8497C12.9111 15.6113 12.2932 14.1226 12.2932 12.3836C12.2932 10.6447 12.9111 9.15598 14.1467 7.91761C15.3824 6.67924 16.8679 6.06006 18.6031 6.06006C20.3383 6.06006 21.8237 6.67924 23.0594 7.91761C24.2951 9.15598 24.9129 10.6447 24.9129 12.3836C24.9129 14.1226 24.2951 15.6113 23.0594 16.8497C21.8237 18.088 20.3383 18.7072 18.6031 18.7072ZM5.9834 31.3544V26.9279C5.9834 26.032 6.21344 25.2086 6.67354 24.4577C7.13363 23.7068 7.74489 23.1337 8.50733 22.7385C10.1374 21.9217 11.7937 21.3091 13.4763 20.9007C15.1589 20.4923 16.8679 20.2881 18.6031 20.2881C20.3383 20.2881 22.0472 20.4923 23.7298 20.9007C25.4124 21.3091 27.0688 21.9217 28.6988 22.7385C29.4612 23.1337 30.0725 23.7068 30.5326 24.4577C30.9927 25.2086 31.2227 26.032 31.2227 26.9279V31.3544H5.9834ZM9.13832 28.1926H28.0678V26.9279C28.0678 26.638 27.9955 26.3745 27.8509 26.1374C27.7063 25.9003 27.5157 25.7158 27.2791 25.5841C25.8594 24.8727 24.4265 24.3391 22.9805 23.9834C21.5345 23.6277 20.0754 23.4499 18.6031 23.4499C17.1308 23.4499 15.6716 23.6277 14.2256 23.9834C12.7796 24.3391 11.3468 24.8727 9.92704 25.5841C9.69043 25.7158 9.49982 25.9003 9.35522 26.1374C9.21062 26.3745 9.13832 26.638 9.13832 26.9279V28.1926ZM18.6031 15.5454C19.4707 15.5454 20.2134 15.2358 20.8312 14.6166C21.4491 13.9975 21.758 13.2531 21.758 12.3836C21.758 11.5141 21.4491 10.7698 20.8312 10.1506C20.2134 9.53144 19.4707 9.22185 18.6031 9.22185C17.7355 9.22185 16.9927 9.53144 16.3749 10.1506C15.7571 10.7698 15.4481 11.5141 15.4481 12.3836C15.4481 13.2531 15.7571 13.9975 16.3749 14.6166C16.9927 15.2358 17.7355 15.5454 18.6031 15.5454Z" fill="#165B4B"/>
</g>
</svg>
